<svg width="16" height="16" viewBox="0 0 16 16" fill="none" xmlns="http://www.w3.org/2000/svg">
<g id="uiw:enter" clip-path="url(#clip0_1_497)">
<path id="Vector" d="M15.44 0C15.5885 0 15.7309 0.0589998 15.836 0.16402C15.941 0.269041 16 0.411479 16 0.56V7.1824C15.9995 8.60354 15.4348 9.96635 14.4298 10.9712C13.4248 11.976 12.0619 12.5406 10.6408 12.5408L1.84397 12.54L4.34877 15.044C4.40078 15.096 4.44203 15.1577 4.47017 15.2257C4.49832 15.2936 4.5128 15.3665 4.5128 15.44C4.5128 15.5135 4.49832 15.5864 4.47017 15.6543C4.44203 15.7223 4.40078 15.784 4.34877 15.836C4.29677 15.888 4.23503 15.9293 4.16709 15.9574C4.09914 15.9855 4.02632 16 3.95277 16C3.87923 16 3.80641 15.9855 3.73846 15.9574C3.67051 15.9293 3.60878 15.888 3.55677 15.836L0.164773 12.4432C0.112766 12.3912 0.0715116 12.3295 0.0433654 12.2615C0.0152191 12.1936 0.000732422 12.1207 0.000732422 12.0472C0.000732422 11.9737 0.0152191 11.9008 0.0433654 11.8329C0.0715116 11.7649 0.112766 11.7032 0.164773 11.6512L3.55757 8.2584C3.60958 8.2064 3.67131 8.16514 3.73926 8.137C3.80721 8.10886 3.88003 8.09437 3.95357 8.09437C4.02712 8.09437 4.09994 8.10886 4.16789 8.137C4.23583 8.16514 4.29757 8.2064 4.34957 8.2584C4.40158 8.3104 4.44283 8.37214 4.47097 8.44009C4.49912 8.50803 4.5136 8.58086 4.5136 8.6544C4.5136 8.72794 4.49912 8.80077 4.47097 8.86871C4.44283 8.93666 4.40158 8.9984 4.34957 9.0504L1.97757 11.4208H10.6416C11.7655 11.4204 12.8433 10.9737 13.6381 10.1789C14.4329 9.38417 14.8795 8.30636 14.88 7.1824V0.56C14.88 0.411479 14.939 0.269041 15.044 0.16402C15.149 0.0589998 15.2915 0 15.44 0Z" fill="#2C0A70"/>
</g>
<defs>
<clipPath id="clip0_1_497">
<rect width="16" height="16" fill="white"/>
</clipPath>
</defs>
</svg>
