<svg width="40" height="40" viewBox="0 0 40 40" fill="none" xmlns="http://www.w3.org/2000/svg">
<rect width="40" height="40" rx="20" fill="white"/>
<path fill-rule="evenodd" clip-rule="evenodd" d="M11.4698 20.5301C11.3294 20.3895 11.2505 20.1988 11.2505 20.0001C11.2505 19.8013 11.3294 19.6107 11.4698 19.4701L17.4698 13.4701C17.5385 13.3964 17.6213 13.3373 17.7133 13.2963C17.8053 13.2553 17.9046 13.2333 18.0053 13.2315C18.106 13.2297 18.206 13.2482 18.2994 13.286C18.3928 13.3237 18.4776 13.3798 18.5489 13.4511C18.6201 13.5223 18.6762 13.6071 18.714 13.7005C18.7517 13.7939 18.7702 13.8939 18.7684 13.9946C18.7666 14.0953 18.7446 14.1946 18.7036 14.2866C18.6626 14.3786 18.6035 14.4614 18.5298 14.5301L13.8098 19.2501H27.9998C28.1987 19.2501 28.3895 19.3291 28.5302 19.4698C28.6708 19.6104 28.7498 19.8012 28.7498 20.0001C28.7498 20.199 28.6708 20.3898 28.5302 20.5304C28.3895 20.6711 28.1987 20.7501 27.9998 20.7501H13.8098L18.5298 25.4701C18.6035 25.5388 18.6626 25.6216 18.7036 25.7136C18.7446 25.8056 18.7666 25.9049 18.7684 26.0056C18.7702 26.1063 18.7517 26.2063 18.714 26.2997C18.6762 26.3931 18.6201 26.4779 18.5489 26.5491C18.4776 26.6203 18.3928 26.6765 18.2994 26.7142C18.206 26.7519 18.106 26.7705 18.0053 26.7687C17.9046 26.7669 17.8053 26.7449 17.7133 26.7039C17.6213 26.6629 17.5385 26.6038 17.4698 26.5301L11.4698 20.5301Z" fill="#2C0A70"/>
</svg>
