<svg xmlns="http://www.w3.org/2000/svg" width="23" height="22" viewBox="0 0 23 22" fill="none">
  <g opacity="0.4">
    <path d="M14.2151 3.34864C14.5501 3.01356 14.9479 2.74777 15.3857 2.56643C15.8235 2.38509 16.2927 2.29175 16.7666 2.29175C17.2405 2.29175 17.7097 2.38509 18.1475 2.56643C18.5853 2.74777 18.9831 3.01356 19.3181 3.34864C19.6532 3.68371 19.919 4.0815 20.1004 4.51929C20.2817 4.95709 20.375 5.42631 20.375 5.90018C20.375 6.37404 20.2817 6.84327 20.1004 7.28106C19.919 7.71886 19.6532 8.11665 19.3181 8.45172L15.9934 11.7765C15.6326 12.1374 15.1993 12.4176 14.7222 12.5987C14.2451 12.7798 13.735 12.8577 13.2256 12.8271C12.7162 12.7965 12.2191 12.6582 11.7671 12.4213C11.3151 12.1844 10.9184 11.8544 10.6034 11.4529C10.4906 11.3094 10.3254 11.2167 10.1442 11.195C9.96304 11.1734 9.78067 11.2246 9.63723 11.3374C9.49379 11.4502 9.40104 11.6154 9.37938 11.7965C9.35772 11.9777 9.40892 12.1601 9.52173 12.3036C9.95693 12.8578 10.5047 13.3134 11.129 13.6404C11.7533 13.9673 12.4398 14.1582 13.1432 14.2003C13.8466 14.2424 14.551 14.1348 15.2098 13.8846C15.8686 13.6345 16.4669 13.2474 16.9651 12.7491L20.2907 9.42339C20.7535 8.96065 21.1205 8.41131 21.371 7.80671C21.6214 7.20212 21.7503 6.55413 21.7503 5.89972C21.7503 5.24532 21.6214 4.59732 21.371 3.99273C21.1205 3.38813 20.7535 2.83879 20.2907 2.37605C19.828 1.91332 19.2786 1.54626 18.6741 1.29583C18.0695 1.0454 17.4215 0.916504 16.7671 0.916504C16.1127 0.916504 15.4647 1.0454 14.8601 1.29583C14.2555 1.54626 13.7061 1.91332 13.2434 2.37605L10.4934 5.12605C10.3681 5.25566 10.2987 5.42929 10.3002 5.60955C10.3017 5.78981 10.3739 5.96228 10.5013 6.08981C10.6287 6.21734 10.8011 6.28972 10.9814 6.29138C11.1616 6.29303 11.3353 6.22381 11.4651 6.09864L14.2151 3.34864Z" fill="black"/>
    <path d="M7.34014 10.2236C7.70094 9.8627 8.1342 9.58244 8.61131 9.40134C9.08842 9.22024 9.59852 9.14241 10.1079 9.17299C10.6173 9.20357 11.1144 9.34187 11.5665 9.57875C12.0185 9.81563 12.4151 10.1457 12.7301 10.5472C12.786 10.6182 12.8553 10.6775 12.9341 10.7218C13.0129 10.766 13.0996 10.7943 13.1893 10.805C13.279 10.8158 13.37 10.8087 13.457 10.7843C13.544 10.7599 13.6253 10.7185 13.6963 10.6627C13.7673 10.6068 13.8267 10.5375 13.8709 10.4587C13.9151 10.38 13.9434 10.2932 13.9542 10.2035C13.9649 10.1138 13.9578 10.0229 13.9334 9.93586C13.909 9.84887 13.8677 9.76754 13.8118 9.69651C13.3766 9.14226 12.8288 8.68662 12.2045 8.35967C11.5803 8.03272 10.8938 7.8419 10.1903 7.7998C9.48689 7.75769 8.78252 7.86527 8.12372 8.11543C7.46492 8.36558 6.86667 8.75263 6.36847 9.25101L3.0428 12.5767C2.58007 13.0394 2.21301 13.5888 1.96258 14.1934C1.71215 14.7979 1.58325 15.4459 1.58325 16.1003C1.58325 16.7548 1.71215 17.4028 1.96258 18.0073C2.21301 18.6119 2.58007 19.1613 3.0428 19.624C3.50554 20.0867 4.05488 20.4538 4.65947 20.7042C5.26407 20.9547 5.91206 21.0836 6.56647 21.0836C7.22087 21.0836 7.86887 20.9547 8.47346 20.7042C9.07806 20.4538 9.6274 20.0867 10.0901 19.624L12.8401 16.874C12.9077 16.8111 12.9619 16.7352 12.9994 16.6508C13.037 16.5665 13.0572 16.4755 13.0588 16.3832C13.0605 16.2908 13.0435 16.1992 13.0089 16.1135C12.9743 16.0279 12.9229 15.9502 12.8576 15.8849C12.7923 15.8196 12.7145 15.7681 12.6289 15.7336C12.5433 15.699 12.4516 15.682 12.3593 15.6836C12.267 15.6853 12.176 15.7055 12.0916 15.743C12.0073 15.7806 11.9314 15.8348 11.8685 15.9023L9.11847 18.6523C8.78334 18.9874 8.38549 19.2532 7.94764 19.4345C7.50979 19.6158 7.04051 19.7091 6.5666 19.7091C5.6095 19.709 4.69164 19.3287 4.01493 18.6519C3.67985 18.3168 3.41407 17.9189 3.23275 17.4811C3.05144 17.0432 2.95814 16.5739 2.95818 16.1C2.95826 15.1429 3.33855 14.2251 4.01539 13.5483L7.34014 10.2236Z" fill="black"/>
  </g>
</svg>