<svg xmlns="http://www.w3.org/2000/svg" width="22" height="22" viewBox="0 0 22 22" fill="none">
  <g opacity="0.4">
    <path d="M11 0.916626C13.188 0.916626 15.2865 1.78582 16.8336 3.333C18.3808 4.88017 19.25 6.97859 19.25 9.16663C19.25 12.5821 16.6467 16.1608 11.55 19.9833C11.3913 20.1023 11.1983 20.1666 11 20.1666C10.8017 20.1666 10.6087 20.1023 10.45 19.9833C5.35333 16.1608 2.75 12.5821 2.75 9.16663C2.75 6.97859 3.61919 4.88017 5.16637 3.333C6.71354 1.78582 8.81196 0.916626 11 0.916626ZM11 2.74996C9.29819 2.74996 7.66609 3.426 6.46273 4.62936C5.25937 5.83272 4.58333 7.46482 4.58333 9.16663C4.58333 11.6508 6.52483 14.5163 10.494 17.6971L11 18.0968L11.506 17.6971C15.4752 14.5163 17.4167 11.6508 17.4167 9.16663C17.4167 7.46482 16.7406 5.83272 15.5373 4.62936C14.3339 3.426 12.7018 2.74996 11 2.74996ZM11 7.33329C11.4862 7.33329 11.9525 7.52645 12.2964 7.87026C12.6402 8.21408 12.8333 8.6804 12.8333 9.16663C12.8333 9.65286 12.6402 10.1192 12.2964 10.463C11.9525 10.8068 11.4862 11 11 11C10.5138 11 10.0475 10.8068 9.70364 10.463C9.35982 10.1192 9.16667 9.65286 9.16667 9.16663C9.16667 8.6804 9.35982 8.21408 9.70364 7.87026C10.0475 7.52645 10.5138 7.33329 11 7.33329Z" fill="black"/>
  </g>
</svg>