<svg xmlns="http://www.w3.org/2000/svg" width="25" height="24" viewBox="0 0 25 24" fill="none">
  <g opacity="0.4">
    <path d="M22.0833 6.75V17.25C22.0833 17.6478 21.9252 18.0294 21.6439 18.3107C21.3626 18.592 20.9811 18.75 20.5833 18.75H4.08325C3.68543 18.75 3.3039 18.592 3.02259 18.3107C2.74129 18.0294 2.58325 17.6478 2.58325 17.25V6.75M22.0833 6.75C22.0833 6.35218 21.9252 5.97064 21.6439 5.68934C21.3626 5.40804 20.9811 5.25 20.5833 5.25H4.08325C3.68543 5.25 3.3039 5.40804 3.02259 5.68934C2.74129 5.97064 2.58325 6.35218 2.58325 6.75M22.0833 6.75L13.1868 12.909C12.936 13.0825 12.6382 13.1755 12.3333 13.1755C12.0283 13.1755 11.7305 13.0825 11.4798 12.909L2.58325 6.75" stroke="black" stroke-width="1.5" stroke-linecap="round" stroke-linejoin="round"/>
  </g>
</svg>