<svg xmlns="http://www.w3.org/2000/svg" width="16" height="16" viewBox="0 0 16 16" fill="none">
  <path d="M3.33325 11.556V4.44467C3.33325 3.858 3.33325 3.56467 3.45659 3.39134C3.50987 3.31646 3.57806 3.2534 3.65688 3.20614C3.7357 3.15887 3.82344 3.12841 3.91459 3.11667C4.12592 3.09 4.38459 3.22734 4.90125 3.50334L11.5679 7.05867L11.5706 7.06C12.1419 7.36467 12.4279 7.51734 12.5219 7.72C12.6033 7.89734 12.6033 8.102 12.5219 8.27934C12.4279 8.48267 12.1413 8.636 11.5686 8.94134L4.90192 12.4967C4.38392 12.7727 4.12592 12.91 3.91525 12.8833C3.82398 12.8717 3.73612 12.8413 3.65718 12.794C3.57824 12.7467 3.50995 12.6836 3.45659 12.6087C3.33325 12.4353 3.33325 12.1427 3.33325 11.556Z" stroke="#2C0A70" stroke-width="1.5" stroke-linecap="round" stroke-linejoin="round"/>
</svg>